<?xml version="1.0"?>
<svg xmlns:rdf="http://www.w3.org/1999/02/22-rdf-syntax-ns#" xmlns="http://www.w3.org/2000/svg" xmlns:cc="http://creativecommons.org/ns#" xmlns:dc="http://purl.org/dc/elements/1.1/" xmlns:svg="http://www.w3.org/2000/svg" id="svg3647" viewBox="0 0 483.3 849.76" version="1.1">
  <g id="layer1" transform="translate(-114.09 -76.399)">
    <g id="g4231" transform="translate(28.284 2.0203)">
      <g id="text4203" transform="matrix(.62305 .075244 -.075244 .62305 143.17 19.974)" fill="#fff">
        <g id="g4253">
          <g id="g4192" transform="matrix(1.2579 -.15192 .15192 1.2579 -154.36 269.74)">
            <path id="path4190" d="m177.99 401.82s14.142-53.538 6.0609-49.497c-8.0812 4.0406-7.0711 22.223-7.0711 22.223s-34.345-43.437-35.355-31.315c-1.0102 12.122 25.254 31.315 25.254 31.315s-52.528-28.284-47.477-16.162c5.0508 12.122 35.355 18.183 35.355 18.183s-50.508-7.0711-43.437 0c7.0711 7.0711 39.396 9.0914 39.396 9.0914s-1.0102 9.0914 5.0508 14.142c6.0609 5.0508 20.203 12.122 20.203 12.122l2.0203-10.102z" fill="#faa"/>
            <path id="path4188" d="m581.85 412.94s-14.142-53.538-6.0609-49.497c8.0812 4.0406 7.0711 22.223 7.0711 22.223s34.345-43.437 35.355-31.315c1.0102 12.122-25.254 31.315-25.254 31.315s52.528-28.284 47.477-16.162c-5.0508 12.122-35.355 18.183-35.355 18.183s50.508-7.0711 43.437 0c-7.0711 7.0711-39.396 9.0914-39.396 9.0914s1.0102 9.0914-5.0508 14.142c-6.0609 5.0508-20.203 12.122-20.203 12.122l-2.0203-10.102z" fill="#faa"/>
            <path id="path4186" d="m430.17 903.89 4.0458 24.275s38.435-29.332 72.824-13.149 41.47 25.286 41.47 25.286l-132.5-2.0229 4.0458-34.389h10.115z" fill="#1c2224"/>
            <path id="path4184" d="m367.8 903.76-4.0595 24.357s-38.565-29.431-73.071-13.193-41.61 25.372-41.61 25.372l132.95-2.0298-4.0595-34.506h-10.149z" fill="#1c2224"/>
            <path id="path4182" d="m327.29 611.94s36.366 234.36 14.142 268.7c-22.223 34.345-46.467 30.305-46.467 30.305l86.873 24.244s-24.244-242.44-14.142-256.58c10.102-14.142 38.386-20.203 42.426-6.0609 4.0406 14.142 6.0609 262.64 6.0609 262.64l70.711-26.264s-40.406-4.0406-46.467-62.629c-6.0609-58.589-6.0609-236.38-6.0609-236.38l-107.08 2.0203z" fill="#216778"/>
            <path id="path3657" d="m392.5 131.78c-12.855-1.1131-27.318 0.52191-43.257 5.1489 0 0-87.154 30.495-94.18 49.876-7.0268 19.381 22.392 19.558 22.392 19.558s-28.243 78.924 13.321 128.45c41.564 49.529 77.894 66.222 77.894 66.222l19.253 1.2645s60.585-51.203 71.686-144.84c8.8456-74.62-16.678-121.31-67.109-125.68zm48.959 127.42s-75.407 153.07-158.18 8.808l62.248-3.4717 1.3707 16.855 19.295-0.0507 1.2326-18.031 74.032-4.1091z" fill="#faa"/>
            <path id="path3661" stroke="#501616" stroke-width="4.0729" fill="none" d="m319.64 172.75c2.2762-5.9166 9.5634-8.954 16.276-6.7841 4.4708 1.4451 7.7485 4.9369 8.5341 9.0915"/>
            <path id="path4174" stroke="#501616" stroke-width="4.0729" fill="none" d="m358.33 176.75c2.2762-5.9166 9.5634-8.954 16.276-6.7841 4.4708 1.4451 7.7485 4.9369 8.5341 9.0915"/>
            <path id="path4180" d="m354.69 392.89 43.622 0.43993-1.4126 33.366s82.538 26.798 118.99 37.668c30.149 8.9909 62.492-54.482 62.492-54.482l15.144 10.703s-38.648 79.284-71.01 77.975c-32.362-1.3088-60.918-29.644-86.693-16.056s39.12 124.05-10.739 153.25c-16.2 9.4868-89.968 5.7861-100.69-8.3606-32.663-43.1 8.9435-126.02-3.7758-140.53-12.719-14.514-42.617-0.33624-77.922 7.1909-68.935-3.7847-67.763-40.944-85.717-91.901l24.634-2.5352s-3.3363 59.353 55.047 64.363c58.383 5.0099 116.51-36.72 116.51-36.72l1.5162-34.371z" fill="#f60"/>
          </g>
          <path id="path4227" d="m250.52 82.616s-108.09 22.223-146.47 92.934c-38.386 70.711-14.142 131.32 53.538 123.24 67.68-8.0812 104.05-68.69 137.38-81.822 33.335-13.132 35.355 45.457 35.355 45.457s-5.0508-62.629 40.406-44.447c45.457 18.183 76.772 93.944 151.52 67.68 74.751-26.264 50.508-113.14-6.0609-161.62-56.57-48.495-194.96-59.607-265.67-41.424z" fill="#87cdde" transform="matrix(1.5819 -.19105 .19105 1.5819 -230.31 -4.2456)"/>
          <path id="path4213" d="m69.578 278.35c3.2203 1.7486 7.8355 5.4251 13.846 11.029 4.3821 4.1088 8.8038 8.239 13.265 12.391 0.03616 0.1222 4.1272 3.3603 12.273 9.7144 5.9606 4.764 9.5314 8.0255 10.712 9.7844 0.95147 1.4326-1.2183 7.0212-6.5094 16.766-1.8345 3.3786-3.9599 5.3261-6.3764 5.8426-0.12211 0.0362-3.2626 0.0107-9.4216-0.0767 1.0466 2.1952 2.114 4.352 3.2023 6.4704 1.3484 2.7658 1.6066 4.9148 0.77471 6.4469-0.83196 1.5322-2.0516 3.8715-3.6591 7.0177-1.6074 3.1463-2.8375 5.5047-3.6903 7.0752-1.1093 2.043-3.8636 3.6506-8.2631 4.8229-3.9588 1.1042-7.2907 1.4311-9.9957 0.98075-3.5399-0.59943-8.612-2.0308-15.216-4.2942-7.9116-2.6689-13.017-4.3218-15.317-4.9587-8.6018-2.3296-21.545-5.8474-38.829-10.553-0.079013-1.1637 0.60558-4.2514 2.0538-9.2632 1.4484-5.0116 2.5351-8.1853 3.2602-9.5209 0.12767-0.23492 1.0387-1.7242 2.7332-4.4677l0.50342-0.6441c0.83135-0.97053 2.4999-2.1238 5.0057-3.4596 2.5059-1.3358 4.4402-2.0405 5.8027-2.1141 1.8486-0.21947 6.8603 1.2288 15.035 4.3448 9.3263 3.4371 14.902 5.347 16.728 5.7298-1.0361-1.2766-2.0333-2.5306-2.9916-3.762-0.45083-0.85637-0.16461-2.2269 0.85868-4.1117 1.621-2.9852 4.056-5.783 7.3051-8.3934 0.8203-0.57287 2.0964-1.0505 3.8283-1.4328 2.2111-0.32687 3.5811-0.59983 4.1098-0.8189-4.5527-3.7945-10.657-9.0431-18.312-15.746-9.4048-8.1584-14.759-13.099-16.062-14.822l0.25583-0.47116c0.47005-0.86549 3.2594-3.1923 8.368-6.9803 5.1087-3.7878 7.9845-5.7106 8.6274-5.7684 1.1614-0.0803 3.8787 0.30154 8.152 1.1454 4.2733 0.84414 6.9207 1.5434 7.9422 2.098zm-16.546 1.2428c-2.7859 1.9461-6.905 4.8463-12.357 8.7007 6.806 5.8316 13.61 11.664 20.412 17.496 9.8355 8.4918 15.762 14.253 17.781 17.283 1.1435 1.6393 1.6085 2.6556 1.395 3.0487-0.51165 0.94241-3.4136 0.99359-8.7059 0.15352-5.2923-0.8399-8.1231-1.1056-8.4925-0.79705-2.0246 1.8534-3.6124 3.8398-4.7633 5.9594-0.12886 0.23746 1.6795 2.9495 5.4251 8.136 3.7457 5.1867 5.1914 8.5665 4.3373 10.139-0.72516 1.3356-5.4214 0.6159-14.089-2.1592-5.3399-1.7786-10.659-3.5986-15.957-5.4602-10.23-2.7045-17.69-3.9559-22.379-3.7543l-0.88619 1.3491c-1.0154 1.6872-1.8143 4.0507-2.397 7.0906-0.58248 3.0399-1.3827 5.4028-2.4006 7.0886l0.82364 0.44722c7.6098 2.0984 19.307 5.1943 35.092 9.2879 6.8847 2.3131 17.344 5.3471 31.378 9.102 2.8185-4.0643 6.9235-10.127 12.315-18.187-1.9889-2.7068-3.9376-5.3933-5.8462-8.0596-3.0987-4.2252-4.4352-6.7299-4.0094-7.514 0.47001-0.86554 3.5133-0.94398 9.1299-0.23534 3.3411 0.59402 6.7036 1.1484 10.088 1.6632 0.43252-0.98523 1.1876-2.3302 2.2653-4.0348 1.0777-1.7045 1.8079-2.9093 2.1907-3.6143 2.6885-4.9514 3.2637-8.3523 1.7257-10.203-3.2318-3.7914-9.4642-9.3642-18.697-16.719-6.938-5.3939-13.877-10.789-20.818-16.184-2.6803-2.3711-6.8674-5.7126-12.561-10.024zm62.144 45.185c-1.1651 0.0816-2.9028 0.003-5.2132-0.23663-1.0265 4.3264-3.207 9.6546-6.5416 15.985l-0.25583 0.47116c2.8393 0.0142 4.8344-1.0385 5.9854-3.1582 0.0859-0.15819 2.0943-4.5118 6.0252-13.061zm-18.615 32.319c-1.0791-0.0767-2.361-0.0602-3.8457 0.0495-0.69819 0.53685-4.2057 5.4985-10.522 14.885 1.8472-0.21712 3.6069-0.50744 5.279-0.87095 1.6721-0.36345 3.0205-1.4887 4.0451-3.3758 0.59629-1.0982 1.4262-2.8596 2.4898-5.2845 1.0636-2.4247 1.915-4.2258 2.5542-5.4032z" fill="#fff"/>
          <path id="path4215" d="m177.62 244.51c0.79999 0.84324 1.8671 2.3583 3.2012 4.5452 1.5768 2.5697 2.326 4.1382 2.2474 4.7054-0.0786 0.56734-4.6062 8.0058-13.583 22.315-8.9767 14.31-13.692 21.679-14.145 22.11-1.5577 1.478-2.8729 2.1711-3.9454 2.0792-1.1847-0.59851-2.7461-1.3343-4.684-2.2074-5.7584-2.3031-13.965-7.7054-24.619-16.207-7.8008-6.4019-15.632-12.836-23.493-19.301-0.80657-0.5924-3.0442-2.1064-6.7129-4.5419-2.86-1.8448-4.967-3.4808-6.3211-4.9079-1.1699-1.233-2.3459-3.4149-3.5279-6.5455-1.1819-3.1305-1.5346-5.3525-1.0582-6.666 0.88638-2.4432 5.3479-9.7888 13.384-22.037 8.0367-12.248 12.996-19.265 14.878-21.051 1.2312-1.168 3.743-0.46902 7.5356 2.097 2.7328 1.8416 5.0231 3.7362 6.8711 5.6837 0.55215 0.58202 1.2443 1.8962 2.0764 3.9425 0.83215 2.0465 1.1446 3.4144 0.93734 4.1036-0.91147 3.3285-3.3051 7.7568-7.1809 13.285-4.2736 6.2742-6.9516 10.726-8.0339 13.355 2.4167 1.897 4.3104 3.2427 5.681 4.0371l13.231-16.255c2.41 2.1516 6.2544 5.0992 11.533 8.843 1.7576 2.891 2.7527 4.7188 2.9855 5.4833 0.27811 1.4626-0.336 3.1858-1.8423 5.1698-1.5063 1.9841-3.0123 3.9368-4.518 5.858-2.3554 2.9721-3.2561 4.7501-2.7021 5.334 0 0.00005 2.446 1.9933 7.3381 5.9797 7.9972-13.132 14.136-21.729 18.418-25.791 1.0371-0.984 2.2233-1.6168 3.5586-1.8983 0.44331-0.052 2.4816 1.1866 6.115 3.7156 3.6333 2.5292 5.758 4.1183 6.374 4.7675zm-5.6523 2.0344c-3.2868-2.4254-5.5462-4.2873-6.7781-5.5858l-20.289 28.498-1.4308 0.24614c-0.92535-0.84835-4.0394-3.2552-9.3421-7.2207-5.3027-3.9654-7.9841-5.9797-8.0442-6.0431-0.80002-0.84312 0.5696-3.6848 4.1089-8.5249 2.2934-3.0373 4.5879-6.0757 6.8833-9.115-1.5532-1.1176-3.7859-2.8206-6.698-5.1089l-0.67989 0.6451c-1.2331 1.1701-3.2978 3.9303-6.1941 8.2806-2.8963 4.3504-4.475 6.6496-4.7363 6.8974-0.64721 0.61417-1.1901 0.8209-1.6288 0.62018-0.0619-0.0652-2.5238-2.0435-7.3856-5.9346-4.8617-3.891-7.3846-5.9336-7.5687-6.1276-0.55398-0.58381-0.6947-1.2514-0.42219-2.0028 0.13725-0.3746 5.893-10.026 17.267-28.954-2.6679-2.0308-5.171-4.2784-7.5091-6.7427l-2.4316 2.3071c-0.32457 0.3081-3.9058 6.0484-10.744 17.221-6.8379 11.173-10.887 17.849-12.146 20.03 1.7889 1.6277 4.5093 3.9755 8.1613 7.0435 5.4594 4.0651 13.58 10.35 24.361 18.855 0.12209 0.1287 3.7235 2.6261 10.804 7.4921 1.4227 1.2378 3.5591 2.9701 6.4091 5.1968 0.55736 0.45663 2.585 1.553 6.0828 3.2892 2.5553 1.3969 4.356 2.6465 5.402 3.749l0.68285-0.64791c2.5295-2.4001 6.5775-8.4601 12.144-18.18 6.5015-11.592 10.409-18.32 11.722-20.183zm-25.062 44.118c-1.416-1.4924-3.867-3.2966-7.353-5.4127-4.3593-2.5172-6.9734-4.1028-7.8421-4.7568-7.8794-5.8347-15.727-11.638-23.542-17.409-10.549-7.7401-18.016-13.597-22.403-17.57 1.1889 2.9417 2.0603 4.7044 2.6143 5.2883 1.1062 1.1659 3.2416 2.8972 6.4063 5.1939 4.2847 3.0847 6.55 4.7567 6.796 5.0159 9.1075 7.133 14.778 11.551 17.01 13.254 6.0735 4.7123 11.908 8.9126 17.502 12.601 2.8 1.7816 6.8719 4.5132 12.216 8.195z" fill="#fff"/>
          <path id="path4217" d="m274.51 202.39c0.62708 1.2849-0.97187 3.3087-4.7968 6.0714-2.5747 1.6546-5.1494 3.309-7.724 4.9635-7.327 5.1675-17.811 12.225-31.451 21.172-0.72647 0.55197-2.2171 1.7775-4.472 3.6767-1.815 1.5812-3.3257 2.6663-4.532 3.2551-1.2848 0.62717-3.8323 0.45276-7.6424-0.52322-3.8101-0.97596-6.1291-2.0072-6.9571-3.0939-5.0896-7.1676-11.791-17.329-20.103-30.483-9.0959-14.56-15.675-24.779-19.737-30.657-1.4199-2.094-3.5804-6.1128-6.4816-12.056 0.11991-0.15862 3.2998-2.5078 9.5395-7.0475 4.0295-2.9596 7.3291-5.0666 9.8987-6.321 2.4103-1.1764 7.7968 0.0745 16.159 3.7528 3.6321 4.7914 8.9012 12.019 15.807 21.682 2.2402 3.98 4.4804 7.9599 6.7207 11.94 3.1446 5.6274 5.7308 9.0908 7.7587 10.39 9.8793-8.7025 17.229-14.23 22.05-16.583 1.5275-0.74557 4.1054-0.56172 7.7336 0.55155 3.3076 1.0725 5.5758 2.2546 6.8045 3.5464 0.71252 0.64506 2.6967 3.2326 5.9525 7.7628 3.2557 4.5302 5.0798 7.1974 5.4724 8.0016zm-6.7406-3.7233c-1.5773-2.6154-4.1049-5.9586-7.5828-10.03-0.79734-0.20889-1.9534-0.54024-3.4683-0.99407l0.70555 1.4454c1.7258 3.5358 3.6795 6.2134 5.8611 8.0328 1.0344 0.2906 2.5292 0.80578 4.4844 1.5456zm-44.656 3.2894c-2.4173-2.3025-4.9236-5.7047-7.5188-10.207-2.0859-3.6574-4.1499-7.3758-6.1919-11.155-3.5938-4.7127-8.6423-12.098-15.146-22.155l-6.9318-2.2864 0.41112 0.84224c1.2938 2.6506 3.3604 5.97 6.1997 9.9579 4.3828 5.9187 6.6724 9.0791 6.8686 9.4811 4.1375 6.4362 10.304 16.011 18.498 28.725 0.8463-0.7106 2.1164-1.7784 3.8103-3.2034zm37.819-3.5359c-2.0931-2.6581-5.1337-6.6451-9.122-11.961l-3.3727 1.6463c-3.3739 1.6469-8.004 4.9514-13.89 9.9135-5.8863 4.9622-10.436 8.2272-13.648 9.795-0.40214 0.19634-0.93553 0.53109-1.6002 1.0043-0.6647 0.47326-1.1981 0.80801-1.6002 1.0042-0.88272 0.43092-2.9409-1.848-6.1745-6.8369-3.0656-5.4655-7.886-13.609-14.461-24.429-3.5079-5.1524-8.7913-12.919-15.85-23.3-7.4882 5.4466-12.919 8.9934-16.293 10.64l0.763 1.5631c1.295 2.6531 3.8567 6.5763 7.6851 11.77 5.1706 7.1282 8.051 11.095 8.6412 11.9 4.9571 8.5258 12.755 21.136 23.394 37.831 1.1867 1.2121 2.7874 3.1664 4.8019 5.8628 2.655-1.8941 6.5613-4.7952 11.719-8.7033 8.2242-6.999 21.227-16.232 39.008-27.699z" fill="#fff"/>
          <path id="path4219" d="m356.93 187.4c-5.8714 3.7458-12.744 6.191-20.617 7.3355-16.368 2.3795-31.4-1.8953-45.095-12.824-2.0543-1.6892-4.2836-5.5215-6.688-11.497-2.0338-5.304-3.3016-9.6814-3.8032-13.132-0.73321-5.0437-0.91605-9.7153-0.54851-14.015 0.59056-6.5016 3.3341-12.954 8.2305-19.356 4.8964-6.4025 10.39-10.408 16.481-12.016 8.4391-2.222 15.491-3.7449 21.156-4.5685 1.1502-0.1671 2.1236-0.3086 2.9201-0.42451 6.9225 2.8786 10.5 5.1143 10.731 6.7073 0.4117 2.8325 0.73648 6.3089 0.97435 10.429 0.27819 5.6504 0.0797 8.6376-0.59549 8.9618-0.67528 0.32433-1.458 0.68694-2.3481 1.0878-0.89022 0.40106-4.1139 1.9994-9.6712 4.7951-3.7263 1.7163-6.6797 3.771-8.8601 6.164-1.0977 1.155-2.0705 2.8555-2.9184 5.1018-0.84803 2.2463-1.1627 4.1214-0.94405 5.6253 0.83604 5.7512 2.8122 9.71 5.9284 11.876l0.79383-0.1154c3.6289-0.5275 7.3133-1.2892 11.053-2.2851 0.60532-0.17894 1.8048-0.62351 3.5986-1.3337 1.5412-0.58795 2.7546-0.94632 3.6403-1.0751 0.97197-0.14125 3.2764 1.2635 6.9134 4.2142 3.6368 2.9509 5.6647 4.9376 6.0837 5.9602 0.89179 2.3987 2.0865 7.1934 3.584 14.384zm-21.192-71.184c-0.077-0.52912-0.39702-1.0237-0.96011-1.4837-0.5632-0.45981-1.1048-0.92353-1.6249-1.3912 0.37402 3.1992 0.75295 7.9773 1.1368 14.335 1.0493 0.39069 1.941 0.93932 2.6752 1.6459-0.21868-1.5039-0.42631-3.7097-0.62289-6.6176-0.19667-2.9077-0.39802-5.0703-0.60405-6.488zm15.812 65.87c-0.49975-2.1854-1.0428-4.366-1.6292-6.5416-0.43537-1.7426-2.0647-3.6287-4.888-5.6584l0.30911 2.1263c0.84856 5.8376 2.9179 9.1955 6.2081 10.074zm-30.76-43.776c-2.4803-0.90214-4.9138-1.1798-7.3007-0.83284-3.5398 0.51467-6.1913 2.3228-7.9543 5.4244-1.7631 3.1018-2.3811 6.4657-1.8539 10.092 0.46315 3.1862 1.6269 5.9092 3.4912 8.1692 1.1042 1.3752 3.3344 3.3546 6.6905 5.9382-1.4085-2.2353-2.3893-5.2551-2.9424-9.0596-1.0802-7.4306 2.2096-14.008 9.8696-19.731zm22.981 42.466c-0.98219-3.0196-2.2262-7.537-3.7319-13.552-4.4585 2.2749-11.952 4.1775-22.479 5.7079-2.4787 0.36037-5.6058-0.94685-9.3812-3.9217-3.7755-2.9747-6.2099-5.7378-7.3031-8.2892-0.95276-2.2105-1.5963-4.466-1.9308-6.7666-1.0932-7.5196 2.001-13.888 9.2825-19.104 5.2248-3.8309 12.21-6.7433 20.955-8.7371-0.28771-3.2115-0.57754-8.0026-0.86947-14.373l-4.5118 0.6559c-9.0264 1.3123-15.901 3.125-20.624 5.4383-6.8446 3.2532-11.681 8.2023-14.509 14.847-0.65522 1.0879-1.5042 2.7016-2.5469 4.841-1.6701 4.6708-1.9391 10.9-0.80709 18.687 0.42432 2.9188 1.6852 6.936 3.7826 12.052 2.2638 5.6346 4.2331 9.2332 5.9078 10.796 4.0422 3.5674 9.5095 6.0702 16.402 7.5082 6.1492 1.276 12.188 1.483 18.118 0.62096 1.0611-0.15423 3.4102-1.083 7.0475-2.7863 3.296-1.5654 5.6956-2.7731 7.1988-3.6231z" fill="#fff"/>
          <path id="path4221" d="m441.16 164.85c-0.89131 6.4654-3.4322 13.11-7.6227 19.933-5.2293 8.4839-11.373 13.773-18.432 15.869-2.194 0.87088-4.434 1.7354-6.7199 2.5936-1.8926 0.64251-4.035 0.79889-6.427 0.46915-8.7682-1.2087-15.764-4.4742-20.988-9.7967-2.857-2.8313-5.2293-8.5292-7.117-17.094-1.8746-8.0199-2.4885-14.376-1.8417-19.068l1.7219-12.491c-0.0488 0.35414 1.0738-2.8747 3.3679-9.6866 0.70802-2.5189 2.2441-6.4592 4.6082-11.821 2.117-3.5888 6.0682-7.3766 11.854-11.363 4.8777-3.2964 8.137-5.012 9.7779-5.1467 6.4448-0.91829 10.774-1.2249 12.988-0.91986 6.9086 0.95244 12.572 5.7047 16.99 14.257 3.4092 6.6974 5.8155 15.106 7.2189 25.226 1.0499 8.0881 1.2574 14.435 0.62257 19.041zm-4.4305 1.6904c1.2209-8.8574 0.38692-19.171-2.502-30.942-3.8722-15.787-10.679-24.352-20.42-25.695-9.3007-1.282-16.834 3.2762-22.6 13.675-3.7446 6.8846-6.2639 15.02-7.5579 24.408-2.0757 15.058 1.8811 27.923 11.87 38.596 1.2576 1.3467 3.2909 2.8003 6.1 4.3608 2.809 1.5606 5.0988 2.4628 6.8692 2.7069 7.3518 1.0134 13.819-1.7059 19.402-8.158 4.9156-5.5498 7.8618-11.867 8.8384-18.951zm-43.62 23.77c-5.5252-5.0941-9.4777-11.777-11.857-20.048-2.2102-7.5236-2.7903-15.094-1.7403-22.711 0.70827-5.1382 1.3982-8.8343 2.0697-11.088 0.53351-1.9122 2.0329-5.5863 4.4981-11.022-0.76928 0.34574-1.8268 1.4642-3.1727 3.3553-1.2366 3.0769-2.466 6.1106-3.688 9.1012-1.2858 3.4336-2.1932 6.739-2.722 9.9161-0.6995 4.4151-0.83364 9.3144-0.4024 14.698 0.45076 3.9429 0.90018 7.8856 1.3483 11.828 0.17075 1.3787 0.60969 3.1096 1.3168 5.1929 0.664 1.7166 1.3234 3.4766 1.9782 5.28 1.0378 2.9414 1.9694 4.6948 2.7948 5.2603 0.31755 0.3137 1.4061 0.59872 3.2658 0.85505 0.35406 0.0488 1.3812-0.0348 3.0815-0.25071 1.7002-0.21594 2.7768-0.33815 3.2296-0.36663zm33.123-33.071c-0.59843 4.3409-1.9904 7.8948-4.1758 10.662-2.7387 3.5033-6.1893 4.968-10.352 4.3942-6.2005-0.85468-9.9065-6.0588-11.118-15.612-0.60695-5.4076-0.44635-11.478 0.4818-18.211 1.6114-11.69 5.0741-17.169 10.388-16.436 2.8353 0.39093 4.7109 1.1907 5.6267 2.3993 2.9377 3.5642 5.3526 8.7934 7.2447 15.688 1.892 6.8945 2.5267 12.6 1.9041 17.116zm-8.7476-1.338c0.36658-2.6596-0.0565-6.4637-1.2692-11.412-1.5497-6.4409-3.9638-9.8874-7.2424-10.339-1.4164-0.19516-2.6087 0.27258-3.577 1.4032l-1.4464 10.493c-0.23216 1.684 0.0708 5.3806 0.9088 11.09 1.0452 6.8232 2.4976 10.363 4.3573 10.619 1.4163 0.19527 3.0292-1.0256 4.8387-3.6627 1.6691-2.2983 2.6319-4.3772 2.8882-6.2369 0.0245-0.17834 0.11189-0.48235 0.26206-0.91203 0.15006-0.42958 0.24338-0.77684 0.27994-1.0418zm4.7913 6.4816c-0.86202-0.30056-2.3064 0.35692-4.333 1.9724-2.5312 1.9978-3.9367 3.0228-4.2165 3.075-0.0865-0.0119 0.23438 0.12255 0.96279 0.40332 0.7283 0.28084 1.756 0.51272 3.0832 0.69562 0.7815-0.43482 1.7254-1.3878 2.8316-2.859 1.1061-1.4711 1.6634-2.5669 1.6719-3.2874z" fill="#fff"/>
          <path id="path4223" d="m515.72 246.77c-0.71718-0.36558-3.609-3.8456-8.6754-10.44-4.513-5.9142-7.4805-9.9366-8.9026-12.067 5.4086-6.6754 12.641-13.877 21.698-21.606l0.30296-0.59435c-0.51774 0.0363-2.4027 0.78123-5.6549 2.2349-2.8088 1.3766-4.4514 1.9435-4.9277 1.7006-0.87761-0.44732-2.8749-2.0924-5.9918-4.9354-3.1171-2.843-4.9015-4.7058-5.3534-5.5885-0.45202-0.88267-0.43262-2.2019 0.0582-3.9577 0.49247-1.3567 0.98317-2.7129 1.4721-4.0685-3.4339 4.5737-8.7243 11.41-15.871 20.51-1.2103 1.389-3.1998 2.6334-5.9685 3.7334-3.0863 1.134-5.3866 1.3151-6.901 0.54312-0.47648-0.24287-2.4018-2.0772-5.776-5.503-3.6899-3.7858-5.9818-6.032-6.8756-6.7388-0.89384-0.70673-1.8145-1.8039-2.7621-3.2914-1.1461-1.6867-1.7554-3.0508-1.8279-4.0922-0.0331-0.9203 0.92098-2.7921 2.8624-5.6153 4.9381-7.5186 9.875-15.038 14.811-22.558 5.7029-8.4302 10.937-15.746 15.703-21.947 0.85214-1.4735 2.4461-3.3207 4.7818-5.5418 8.3904-4.252 16.887-4.1854 25.49 0.19974 14.257 7.2675 21.397 12.06 21.419 14.377 0.0315 1.1217-0.15924 2.5802-0.5721 4.3756-0.66115 2.4745-1.0526 3.9302-1.1742 4.3673 2.5354-2.0181 4.6937-3.2002 6.475-3.5464 1.7811-0.34608 4.0257 0.17104 6.7338 1.5514 0.79721 0.40649 3.5146 3.2463 8.1522 8.5196 5.671 6.2014 8.7039 9.5038 9.0987 9.907 1.3504 1.2918 2.7004 2.5817 4.0498 3.8697 1.7856 1.8138 2.6733 3.3197 2.6629 4.5179-0.0445 0.6818-0.4929 1.8589-1.3453 3.5313-2.5577 5.0173-9.6518 14.798-21.282 29.342-11.988 14.861-19.914 23.616-23.775 26.266-0.88172 0.552-2.945 1.2053-6.19 1.9598-3.2451 0.75451-5.2261 0.94901-5.9431 0.58351zm31.251-85.224-2.3883-1.2174c-1.2038 0.39094-2.9109 1.3276-5.1212 2.8101-2.2105 1.4826-3.5592 2.7015-4.046 3.6568-0.2442 0.47893-0.42991 1.1376-0.55713 1.9761 4.78-2.8829 8.8176-5.2914 12.113-7.2256zm22.96 24.35c-4.4818-4.5936-11.043-11.702-19.683-21.325-11.375 7.548-17.899 10.896-19.571 10.043-1.0356-0.52782-0.71031-3.9237 0.97598-10.188 1.9751-7.023 2.8673-11.134 2.6766-12.334-7.3564-5.2565-12.189-8.4734-14.498-9.6506-1.9132-0.97511-5.64-2.5226-11.18-4.6426-3.0653 3.454-6.3376 7.8068-9.817 13.058-2.9559 4.6152-5.9118 9.2304-8.8676 13.846-1.2531 1.8695-4.8479 6.6597-10.784 14.371-4.4846 5.8419-7.7426 10.854-9.7738 15.037 1.3481 1.2905 4.9571 5.0366 10.827 11.238 5.6948-7.2308 11.389-14.464 17.083-21.698 9.4475-11.841 14.794-17.997 16.038-18.468 0.43981-0.0758 0.89918 0.008 1.3781 0.25231 1.1133 0.56756 0.7585 5.0034-1.0643 13.308-1.1608 5.2271-2.2809 10.476-3.3602 15.748 1.2297 1.1261 3.2166 2.7406 5.9605 4.8437 4.9011-2.9222 9.7616-5.8637 14.581-8.8244 8.0738-4.8146 12.469-7.0391 13.187-6.6736 1.4341 0.73111 1.5019 2.3704 0.20342 4.9179-3.005 5.8949-7.6135 12.376-13.826 19.445-5.405 5.875-10.809 11.751-16.211 17.627 4.8802 4.7968 9.0659 9.088 12.557 12.873 1.8899-1.5448 3.4408-3.1124 4.6527-4.7027 15.499-18.792 27.732-34.031 36.699-45.716zm-42 17.72c-1.0784-0.0474-2.6993 0.0803-4.8626 0.38323-0.64041 0.27691-3.622 3.1732-8.9447 8.6888-4.7945 4.8816-7.9991 8.2154-9.6138 10.002 2.0828-0.14491 4.2822-0.12783 6.5981 0.0512 5.8828-5.8335 11.491-12.208 16.823-19.125zm-21.87-10.546c0.99217-4.1094 2.4595-10.235 4.4019-18.377-0.12118 0.0394-1.2305 1.2302-3.3279 3.5727-1.2512 1.4692-2.1816 2.8018-2.7912 3.9978-0.64936 1.2738-1.1822 3.1092-1.5986 5.5061-0.66577 3.0723-1.1012 5.0079-1.3062 5.8068 1.081-0.15021 2.6217-0.31885 4.6219-0.5059zm-3.3502-54.844c-3.9651 0.68923-6.8515 1.6265-8.6593 2.8119-0.48481 0.35628-1.9596 2.2643-4.4245 5.724-4.7656 6.2009-13.072 17.671-24.919 34.411-1.417 2.3892-3.4617 5.7126-6.1341 9.97 1.319 0.17012 3.3357 0.4463 6.0502 0.82854 2.1402-2.8229 5.2919-7.0381 9.455-12.646 6.1896-9.1867 15.733-22.887 28.631-41.1z" fill="#fff"/>
          <path id="path4225" d="m607.25 301.17c-0.83838 0.8051-2.3469 1.8813-4.5257 3.2287-2.5601 1.5924-4.124 2.351-4.6917 2.2759-0.56781-0.0752-8.0336-4.5576-22.397-13.447-14.364-8.8897-21.762-13.56-22.195-14.01-1.4874-1.5487-2.1885-2.8596-2.1031-3.9327 0.59131-1.1884 1.3176-2.7541 2.1789-4.6973 2.2681-5.7723 7.6205-14.011 16.057-24.717 6.3545-7.8395 12.741-15.709 19.158-23.609 0.5875-0.81016 2.0878-3.0569 4.5011-6.7403 1.8274-2.8711 3.4506-4.988 4.8695-6.3508 1.2259-1.1774 3.4006-2.3666 6.524-3.5676 3.1233-1.2008 5.3431-1.5671 6.6594-1.0987 2.4485 0.87154 9.821 5.2884 22.118 13.251 12.296 7.9623 19.343 12.879 21.141 14.75 1.1754 1.224 0.49172 3.7401-2.0512 7.5481-1.825 2.7439-3.7057 5.0457-5.642 6.9054-0.57866 0.55567-1.8886 1.2558-3.9298 2.1003-2.0414 0.84455-3.4074 1.1653-4.0979 0.96222-3.334-0.89127-7.7767-3.258-13.328-7.1002-6.3-4.2355-10.768-6.8864-13.403-7.9527-1.8823 2.4282-3.2165 4.33-4.0026 5.7054l16.335 13.132c-2.1369 2.423-5.0612 6.2852-8.7728 11.586-2.8803 1.7751-4.702 2.7813-5.4651 3.0187-1.4609 0.28698-3.1878-0.31666-5.1809-1.8109-1.9932-1.4943-3.955-2.9884-5.8853-4.4824-2.9864-2.3373-4.7698-3.2272-5.3503-2.6697-0.00005 0-1.9784 2.4581-5.9351 7.3742 13.18 7.9173 21.814 14.004 25.902 18.261 0.99028 1.0311 1.6302 2.2134 1.9199 3.547 0.0547 0.44298-1.1715 2.4888-3.6784 6.1375-2.5071 3.6486-4.0833 5.7829-4.7287 6.4028zm-2.0687-5.6398c2.4054-3.3014 4.2536-5.5721 5.5446-6.8119l-28.621-20.116-0.25482-1.4293c0.84273-0.93047 3.2307-4.059 7.1639-9.3857 3.9331-5.3267 5.9312-8.0202 5.9942-8.0807 0.83825-0.80511 3.6881 0.54725 8.5497 4.0571 3.0512 2.275 6.1034 4.5509 9.1566 6.8278 1.1082-1.56 2.7976-3.8029 5.0682-6.7289l-0.6492-0.67596c-1.1775-1.226-3.9502-3.2739-8.318-6.1437-4.3679-2.8698-6.6766-4.4346-6.926-4.6944-0.61809-0.64347-0.82811-1.1851-0.63005-1.625 0.0649-0.0623 2.0281-2.5362 5.8897-7.4214 3.8615-4.8852 5.8887-7.4204 6.0816-7.6057 0.58044-0.55751 1.2472-0.70228 2.0002-0.43433 0.37543 0.13498 10.061 5.8321 29.058 17.091 2.0146-2.6802 4.2469-5.1968 6.697-7.5499l-2.3218-2.4175c-0.31007-0.3227-6.072-3.8691-17.286-10.639-11.214-6.77-17.915-10.778-20.103-12.025-1.6168 1.7987-3.9481 4.5333-6.9939 8.2038-4.0319 5.4839-10.267 13.642-18.707 24.475-0.12796 0.12287-2.6034 3.7393-7.4265 10.849-1.2292 1.4302-2.9485 3.577-5.1579 6.4405-0.45324 0.56013-1.5373 2.5943-3.2522 6.1027-1.3813 2.5637-2.62 4.3719-3.7161 5.4246l0.65204 0.67891c2.4154 2.5149 8.4998 6.5261 18.253 12.034 11.632 6.4311 18.383 10.297 20.254 11.599zm-44.27-24.794c1.4837-1.4251 3.2731-3.8869 5.368-7.3857 2.4908-4.3745 4.0605-6.9981 4.7091-7.8708 5.7868-7.9146 11.542-15.797 17.266-23.647 7.676-10.595 13.487-18.099 17.434-22.509-2.9344 1.2067-4.6919 2.0888-5.2723 2.6463-1.1591 1.1133-2.8774 3.2591-5.1549 6.4376-3.0587 4.3033-4.7169 6.5787-4.9746 6.8263-7.0777 9.1506-11.461 14.847-13.151 17.09-4.6754 6.1019-8.8403 11.961-12.495 17.578-1.7646 2.8107-4.4715 6.8991-8.1208 12.265z" fill="#fff"/>
        </g>
      </g>
    </g>
  </g>
  <metadata>
    <rdf:RDF>
      <cc:Work>
        <dc:format>image/svg+xml</dc:format>
        <dc:type rdf:resource="http://purl.org/dc/dcmitype/StillImage"/>
        <cc:license rdf:resource="http://creativecommons.org/licenses/publicdomain/"/>
        <dc:publisher>
          <cc:Agent rdf:about="http://openclipart.org/">
            <dc:title>Openclipart</dc:title>
          </cc:Agent>
        </dc:publisher>
        <dc:title>welcome</dc:title>
        <dc:date>2009-12-04T18:05:07</dc:date>
        <dc:description>drawn by pencilsauce.com using inkscape from inkscape.org</dc:description>
        <dc:source>http://openclipart.org/detail/28577/welcome-by-kablam</dc:source>
        <dc:creator>
          <cc:Agent>
            <dc:title>kablam</dc:title>
          </cc:Agent>
        </dc:creator>
        <dc:subject>
          <rdf:Bag>
            <rdf:li>cartoon</rdf:li>
            <rdf:li>clip art</rdf:li>
            <rdf:li>clipart</rdf:li>
            <rdf:li>image</rdf:li>
            <rdf:li>media</rdf:li>
            <rdf:li>png</rdf:li>
            <rdf:li>public domain</rdf:li>
            <rdf:li>svg</rdf:li>
            <rdf:li>unchecked</rdf:li>
            <rdf:li>welcome</rdf:li>
          </rdf:Bag>
        </dc:subject>
      </cc:Work>
      <cc:License rdf:about="http://creativecommons.org/licenses/publicdomain/">
        <cc:permits rdf:resource="http://creativecommons.org/ns#Reproduction"/>
        <cc:permits rdf:resource="http://creativecommons.org/ns#Distribution"/>
        <cc:permits rdf:resource="http://creativecommons.org/ns#DerivativeWorks"/>
      </cc:License>
    </rdf:RDF>
  </metadata>
</svg>
